$MeshFormat
4.1 0 8
$EndMeshFormat
$PhysicalNames
1
1 3 "inclusion"
$EndPhysicalNames
$Entities
3 2 1 0
1 0.5 0.5 0 0 
2 0.5 0.3 0 0 
3 0.5 0.7 0 0 
1 0.5 0.3 0 0.6969615506024416 0.7 0 1 3 2 2 -3 
2 0.3030384493975584 0.3 0 0.5 0.7 0 1 3 2 3 -2 
1 0.3030384493975584 0.3 0 0.6969615506024416 0.7 0 0 2 2 1 
$EndEntities
$Nodes
4 12 1 12
0 2 0 1
1
0.5 0.3 0
0 3 0 1
2
0.5 0.7 0
1 1 0 5
3
4
5
6
7
0.6000000000707313 0.326794919283949 0
0.6732050809973467 0.400000000416487 0
0.7 0.5000000007906523 0
0.6732050804534704 0.6000000005255341 0
0.5999999997767141 0.6732050808858019 0
1 2 0 5
8
9
10
11
12
0.3999999996600387 0.6732050805606109 0
0.326794918941623 0.5999999994778052 0
0.3 0.499999999189062 0
0.3267949195486844 0.3999999994707336 0
0.4000000002837152 0.3267949190793092 0
$EndNodes
$Elements
2 12 1 12
1 1 1 6
1 1 3 
2 3 4 
3 4 5 
4 5 6 
5 6 7 
6 7 2 
1 2 1 6
7 2 8 
8 8 9 
9 9 10 
10 10 11 
11 11 12 
12 12 1 
$EndElements
